<?xml version="1.0" standalone="no"?>
<!DOCTYPE svg PUBLIC "-//W3C//DTD SVG 20010904//EN"
 "http://www.w3.org/TR/2001/REC-SVG-20010904/DTD/svg10.dtd">
<svg version="1.0" xmlns="http://www.w3.org/2000/svg"
 width="225.000000pt" height="225.000000pt" viewBox="0 0 225.000000 225.000000"
 preserveAspectRatio="xMidYMid meet">
<metadata>
Created by potrace 1.10, written by Peter Selinger 2001-2011
</metadata>
<g transform="translate(0.000000,225.000000) scale(0.100000,-0.100000)"
fill="#ffffff" stroke="none">
<path d="M756 1511 c-62 -63 -106 -114 -102 -120 5 -7 43 -11 102 -11 l94 0 1
-137 0 -138 77 -65 c42 -36 145 -132 228 -213 84 -82 158 -146 163 -142 7 4
11 71 11 188 l0 182 291 239 c238 195 288 240 278 252 -9 11 -63 14 -296 14
l-284 0 -62 -57 c-34 -32 -79 -73 -100 -92 l-37 -35 -123 122 c-67 67 -125
122 -127 122 -3 0 -54 -49 -114 -109z m124 54 c0 -8 -4 -15 -10 -15 -5 0 -10
7 -10 15 0 8 5 15 10 15 6 0 10 -7 10 -15z m-30 -85 l0 -60 -60 0 c-33 0 -60
2 -60 4 0 6 105 113 113 115 4 0 7 -26 7 -59z m138 -32 l93 -92 -96 -96 -95
-95 0 188 c0 103 1 187 3 187 2 0 45 -41 95 -92z m831 65 c0 -7 -425 -357
-653 -540 l-53 -42 -99 87 c-55 48 -101 91 -104 96 -2 6 93 99 211 208 l214
198 243 0 c133 0 242 -3 241 -7z m-524 -633 l0 -130 -72 72 c-40 40 -71 73
-70 74 1 1 31 27 67 58 36 31 67 56 70 56 3 0 5 -58 5 -130z"/>
</g>
</svg>
